<svg width="28" height="28" viewBox="0 0 28 28" fill="none" xmlns="http://www.w3.org/2000/svg">
<path fill-rule="evenodd" clip-rule="evenodd" d="M22.6522 15.7265C21.8177 15.5095 21.3401 15.3731 21.0124 14.7403L19.9166 12.5217C19.5888 11.8888 18.7374 11.3709 18.0248 11.3709H16.5261C16.5261 11.3709 16.3245 11.3751 16.3245 11.1722V9.31152C16.3245 8.5902 15.9163 8 15.048 8H2.83333C1.5902 8 1 8.59027 1 9.31152V10V10.4776V13.8259V14.2269V17.6091V18V20.4268C1 21.148 1.5902 21.7383 2.31152 21.7383H3.03597C3.20026 21.7383 3.22446 21.6468 3.22446 21.6008C3.22446 19.9655 4.55503 18.6353 6.19037 18.6353C7.82584 18.6353 9.15634 19.9657 9.15634 21.6008L9.15616 21.6129C9.15513 21.6613 9.15347 21.7383 9.26887 21.7383H15.1152C15.227 21.7383 15.2266 21.6475 15.2264 21.6053L15.2264 21.6008C15.2264 19.9655 16.5569 18.6353 18.1923 18.6353C19.8277 18.6353 21.1582 19.9657 21.1582 21.6008V21.6029C21.1582 21.6497 21.1582 21.7383 21.2296 21.7383H22.7036C23.4165 21.7383 23.9996 21.1552 23.9996 20.4423V17.9801C23.9997 16.054 23.4348 15.9171 22.7992 15.763C22.7505 15.7512 22.7015 15.7393 22.6522 15.7265ZM20.186 15.6112H16.4971C16.3447 15.6112 16.3244 15.4628 16.3244 15.4628V12.3898C16.3244 12.3898 16.3158 12.2718 16.5115 12.2718H17.5641C18.1983 12.2718 18.9559 12.7326 19.2475 13.2958L20.2226 15.2699C20.2636 15.3494 20.3075 15.4199 20.3545 15.4832C20.3891 15.5295 20.3311 15.6112 20.186 15.6112ZM3.91522 21.6007C3.91522 20.3434 4.93407 19.3249 6.19127 19.3249C7.44892 19.3249 8.46751 20.3434 8.46751 21.6007C8.46751 22.8581 7.44892 23.8766 6.19127 23.8766C4.93407 23.8766 3.91522 22.8581 3.91522 21.6007ZM5.20191 21.6007C5.20191 22.1472 5.64475 22.5901 6.19127 22.5901C6.73785 22.5901 7.18101 22.1472 7.18101 21.6007C7.18101 21.0539 6.73785 20.6113 6.19127 20.6113C5.64475 20.6113 5.20191 21.0539 5.20191 21.6007ZM15.9171 21.6007C15.9171 20.3434 16.9359 19.3249 18.1931 19.3249C19.4508 19.3249 20.4693 20.3434 20.4693 21.6007C20.4693 22.8581 19.4508 23.8766 18.1931 23.8766C16.9359 23.8766 15.9171 22.8581 15.9171 21.6007ZM17.2038 21.6007C17.2038 22.1472 17.6466 22.5901 18.1931 22.5901C18.7397 22.5901 19.1829 22.1472 19.1829 21.6007C19.1829 21.0539 18.7397 20.6113 18.1931 20.6113C17.6466 20.6113 17.2038 21.0539 17.2038 21.6007Z" fill="#9799A0"/>
<circle cx="22" cy="6" r="6" fill="#0DD83A"/>
</svg>
