<svg width="376" height="148" viewBox="0 0 376 148" fill="none" xmlns="http://www.w3.org/2000/svg">
<g filter="url(#filter0_d)">
<g clip-path="url(#clip0)">
<rect x="24" width="328" height="100" rx="8" fill="url(#paint0_linear)"/>
<g opacity="0.5">
<path d="M33.0005 123.095C54.0399 123.095 71.0957 106.039 71.0957 85C71.0957 63.9606 54.0399 46.9048 33.0005 46.9048C11.9611 46.9048 -5.09473 63.9606 -5.09473 85C-5.09473 106.039 11.9611 123.095 33.0005 123.095Z" fill="white" fill-opacity="0.15"/>
<path d="M29.0173 122.889C29.6755 122.958 30.3386 123.009 31.0063 123.044L30.9934 123.294C31.6581 123.328 32.3273 123.345 33.0005 123.345C33.6737 123.345 34.3429 123.328 35.0076 123.294L34.9948 123.044C35.6624 123.009 36.3256 122.958 36.9837 122.889L37.0095 123.138C38.3533 122.999 39.6765 122.79 40.9755 122.515L40.9238 122.27C41.5768 122.132 42.2237 121.977 42.8639 121.806L42.9284 122.048C44.2297 121.7 45.5037 121.285 46.7466 120.808L46.657 120.574C47.2792 120.335 47.8935 120.08 48.4995 119.81L48.6013 120.039C49.8284 119.491 51.0214 118.882 52.1764 118.213L52.0512 117.997C52.6274 117.664 53.1942 117.315 53.7508 116.953L53.8872 117.163C55.0111 116.431 56.0943 115.643 57.1326 114.801L56.9751 114.607C57.4919 114.188 57.9974 113.756 58.4912 113.311L58.6586 113.496C59.6533 112.6 60.6007 111.653 61.4969 110.658L61.3112 110.491C61.7561 109.997 62.1883 109.491 62.6073 108.975L62.8015 109.132C63.6433 108.094 64.432 107.011 65.1633 105.887L64.9538 105.75C65.316 105.194 65.6641 104.627 65.9975 104.051L66.2139 104.176C66.8822 103.021 67.4919 101.828 68.0391 100.601L67.8107 100.499C68.081 99.893 68.3358 99.2786 68.5748 98.6565L68.8082 98.7461C69.2856 97.5032 69.7002 96.2292 70.048 94.9279L69.8065 94.8634C69.9776 94.2231 70.1325 93.5763 70.2707 92.9233L70.5152 92.975C70.79 91.676 70.9991 90.3528 71.1387 89.009L70.89 88.9832C70.9584 88.3251 71.01 87.6619 71.0444 86.9942L71.2941 87.0071C71.3284 86.3424 71.3457 85.6732 71.3457 85C71.3457 84.3268 71.3284 83.6576 71.2941 82.9929L71.0444 83.0057C71.01 82.3381 70.9584 81.6749 70.89 81.0168L71.1387 80.991C70.9991 79.6472 70.79 78.324 70.5152 77.025L70.2707 77.0767C70.1325 76.4237 69.9776 75.7769 69.8065 75.1366L70.048 75.0721C69.7002 73.7708 69.2856 72.4968 68.8082 71.2539L68.5748 71.3435C68.3358 70.7214 68.081 70.107 67.8107 69.501L68.0391 69.3992C67.4919 68.1721 66.8822 66.9791 66.2139 65.8241L65.9975 65.9493C65.6641 65.3731 65.316 64.8064 64.9538 64.2497L65.1633 64.1133C64.432 62.9894 63.6433 61.9062 62.8015 60.8679L62.6073 61.0254C62.1883 60.5087 61.7561 60.0031 61.3112 59.5093L61.4969 59.3419C60.6008 58.3473 59.6533 57.3998 58.6586 56.5036L58.4913 56.6893C57.9974 56.2444 57.4919 55.8122 56.9751 55.3932L57.1326 55.1991C56.0943 54.3572 55.0111 53.5686 53.8872 52.8372L53.7508 53.0467C53.1942 52.6845 52.6274 52.3364 52.0512 52.003L52.1764 51.7866C51.0214 51.1184 49.8284 50.5086 48.6013 49.9614L48.4995 50.1898C47.8935 49.9196 47.2792 49.6647 46.657 49.4257L46.7466 49.1923C45.5038 48.7149 44.2297 48.3003 42.9284 47.9525L42.8639 48.194C42.2237 48.0229 41.5768 47.868 40.9238 47.7299L40.9755 47.4853C39.6765 47.2105 38.3533 47.0015 37.0095 46.8618L36.9837 47.1105C36.3256 47.0421 35.6624 46.9905 34.9948 46.9561L35.0076 46.7064C34.3429 46.6721 33.6737 46.6548 33.0005 46.6548C32.3273 46.6548 31.6581 46.6721 30.9934 46.7064L31.0063 46.9561C30.3386 46.9905 29.6755 47.0421 29.0173 47.1105L28.9915 46.8618C27.6477 47.0015 26.3245 47.2105 25.0255 47.4853L25.0772 47.7299C24.4242 47.868 23.7774 48.0229 23.1372 48.194L23.0726 47.9525C21.7713 48.3003 20.4973 48.7149 19.2544 49.1923L19.3441 49.4257C18.7219 49.6647 18.1075 49.9196 17.5016 50.1898L17.3997 49.9614C16.1726 50.5086 14.9796 51.1184 13.8247 51.7866L13.9499 52.003C13.3736 52.3364 12.8069 52.6845 12.2502 53.0467L12.1138 52.8372C10.9899 53.5686 9.90675 54.3572 8.86844 55.1991L9.02589 55.3932C8.50916 55.8122 8.00362 56.2444 7.50977 56.6893L7.34243 56.5036C6.34777 57.3998 5.40028 58.3473 4.50412 59.3419L4.68985 59.5093C4.24491 60.0031 3.81271 60.5086 3.39376 61.0254L3.19956 60.8679C2.35773 61.9062 1.56907 62.9894 0.837704 64.1133L1.04725 64.2497C0.685007 64.8064 0.336922 65.3731 0.00349903 65.9493L-0.212891 65.8241C-0.881131 66.9791 -1.49087 68.1721 -2.03805 69.3992L-1.80972 69.501C-2.07993 70.107 -2.33479 70.7213 -2.57379 71.3435L-2.80716 71.2539C-3.28458 72.4968 -3.69916 73.7708 -4.047 75.0721L-3.80548 75.1366C-3.97661 75.7768 -4.13149 76.4237 -4.26963 77.0767L-4.51422 77.025C-4.78901 78.324 -4.99803 79.6472 -5.13765 80.991L-4.88899 81.0168C-4.95737 81.6749 -5.00899 82.3381 -5.04343 83.0058L-5.29309 82.9929C-5.32738 83.6576 -5.34473 84.3268 -5.34473 85C-5.34473 85.6732 -5.32738 86.3424 -5.29309 87.0071L-5.04343 86.9942C-5.00899 87.6619 -4.95737 88.3251 -4.88899 88.9832L-5.13765 89.009C-4.99803 90.3528 -4.78901 91.676 -4.51422 92.975L-4.26963 92.9233C-4.13149 93.5763 -3.97661 94.2231 -3.80548 94.8634L-4.047 94.9279C-3.69916 96.2292 -3.28458 97.5032 -2.80716 98.7461L-2.57379 98.6565C-2.33479 99.2786 -2.07994 99.893 -1.80972 100.499L-2.03805 100.601C-1.49087 101.828 -0.881133 103.021 -0.212892 104.176L0.0034976 104.051C0.33692 104.627 0.685005 105.194 1.04724 105.75L0.837701 105.887C1.56906 107.011 2.35773 108.094 3.19956 109.132L3.39375 108.975C3.8127 109.491 4.2449 109.997 4.68985 110.491L4.50411 110.658C5.40027 111.653 6.34777 112.6 7.34243 113.496L7.50977 113.311C8.00361 113.756 8.50916 114.188 9.02588 114.607L8.86844 114.801C9.90674 115.643 10.9899 116.431 12.1138 117.163L12.2502 116.953C12.8069 117.315 13.3736 117.664 13.9499 117.997L13.8246 118.213C14.9796 118.882 16.1726 119.491 17.3997 120.039L17.5016 119.81C18.1075 120.08 18.7219 120.335 19.344 120.574L19.2544 120.808C20.4973 121.285 21.7713 121.7 23.0726 122.048L23.1372 121.806C23.7774 121.977 24.4242 122.132 25.0772 122.27L25.0255 122.515C26.3245 122.79 27.6477 122.999 28.9915 123.138L29.0173 122.889Z" stroke="white" stroke-opacity="0.5" stroke-width="0.5" stroke-dasharray="4 2"/>
<path d="M33.0004 136.809C61.614 136.809 84.8099 113.614 84.8099 85C84.8099 56.3864 61.614 33.1904 33.0004 33.1904C4.38683 33.1904 -18.8091 56.3864 -18.8091 85C-18.8091 113.614 4.38683 136.809 33.0004 136.809Z" fill="white" fill-opacity="0.15"/>
<path d="M29.1247 136.667C29.7666 136.714 30.4118 136.75 31.06 136.774L31.0508 137.024C31.6977 137.047 32.3477 137.059 33.0004 137.059C33.6532 137.059 34.3031 137.047 34.9501 137.024L34.9409 136.774C35.5891 136.75 36.2342 136.714 36.8761 136.667L36.8946 136.916C38.1975 136.82 39.4871 136.675 40.7616 136.485L40.7247 136.238C41.366 136.142 42.0036 136.034 42.637 135.915L42.6832 136.161C43.9657 135.919 45.2317 135.631 46.4791 135.298L46.4146 135.056C47.0398 134.889 47.6604 134.71 48.2762 134.521L48.3498 134.76C49.5958 134.376 50.8219 133.946 52.0261 133.473L51.9347 133.241C52.5368 133.004 53.1334 132.757 53.7242 132.498L53.8243 132.728C55.0172 132.206 56.1868 131.642 57.331 131.036L57.214 130.815C57.7856 130.512 58.3507 130.199 58.9093 129.876L59.0345 130.092C60.16 129.441 61.2588 128.749 62.3289 128.018L62.1879 127.812C62.7217 127.447 63.2483 127.073 63.7674 126.689L63.916 126.89C64.9608 126.118 65.9757 125.307 66.9586 124.46L66.7955 124.271C67.285 123.849 67.7665 123.419 68.2399 122.979L68.4099 123.163C69.3614 122.279 70.2798 121.361 71.163 120.409L70.9798 120.239C71.4192 119.766 71.8498 119.285 72.2714 118.795L72.4609 118.958C73.3075 117.975 74.118 116.96 74.8904 115.916L74.6894 115.767C75.0731 115.248 75.4474 114.721 75.812 114.187L76.0185 114.328C76.7495 113.258 77.4416 112.16 78.0928 111.034L77.8764 110.909C78.1996 110.35 78.5126 109.785 78.8153 109.214L79.0362 109.331C79.6423 108.186 80.2069 107.017 80.7281 105.824L80.499 105.724C80.7571 105.133 81.0046 104.536 81.2411 103.934L81.4738 104.026C81.9468 102.821 82.3762 101.595 82.7601 100.349L82.5212 100.276C82.7109 99.66 82.8894 99.0394 83.0566 98.4141L83.2981 98.4787C83.6316 97.2312 83.9198 95.9653 84.1611 94.6828L83.9154 94.6365C84.0345 94.0031 84.1422 93.3656 84.238 92.7242L84.4853 92.7612C84.6758 91.4866 84.8201 90.197 84.9165 88.8941L84.6672 88.8757C84.7146 88.2338 84.7504 87.5886 84.7743 86.9404L85.0241 86.9496C85.0479 86.3027 85.0599 85.6527 85.0599 85C85.0599 84.3472 85.0479 83.6973 85.0241 83.0503L84.7743 83.0595C84.7504 82.4113 84.7146 81.7662 84.6672 81.1243L84.9165 81.1058C84.8201 79.8029 84.6758 78.5133 84.4853 77.2388L84.238 77.2757C84.1422 76.6343 84.0345 75.9968 83.9154 75.3634L84.1611 75.3172C83.9198 74.0347 83.6316 72.7687 83.2981 71.5212L83.0566 71.5858C82.8894 70.9605 82.7109 70.3399 82.5212 69.7242L82.7601 69.6506C82.3762 68.4046 81.9468 67.1785 81.4738 65.9743L81.2411 66.0657C81.0046 65.4636 80.7571 64.8671 80.499 64.2762L80.7281 64.1761C80.2068 62.9832 79.6423 61.8136 79.0362 60.6694L78.8153 60.7864C78.5126 60.2148 78.1996 59.6497 77.8764 59.0911L78.0928 58.9659C77.4416 57.8404 76.7495 56.7416 76.0185 55.6714L75.812 55.8125C75.4474 55.2787 75.0731 54.7521 74.6894 54.233L74.8904 54.0844C74.118 53.0396 73.3075 52.0247 72.4609 51.0418L72.2714 51.2049C71.8498 50.7154 71.4192 50.2339 70.9798 49.7605L71.163 49.5905C70.2798 48.639 69.3614 47.7206 68.4099 46.8374L68.2399 47.0206C67.7665 46.5812 67.285 46.1506 66.7955 45.7289L66.9586 45.5395C65.9757 44.6929 64.9608 43.8824 63.916 43.11L63.7674 43.311C63.2483 42.9273 62.7217 42.553 62.1879 42.1884L62.3289 41.9819C61.2588 41.2509 60.16 40.5588 59.0345 39.9076L58.9093 40.124C58.3507 39.8008 57.7856 39.4878 57.214 39.1851L57.331 38.9642C56.1868 38.3581 55.0172 37.7935 53.8243 37.2723L53.7242 37.5014C53.1333 37.2433 52.5368 36.9958 51.9347 36.7593L52.0261 36.5266C50.8219 36.0536 49.5958 35.6242 48.3498 35.2403L48.2762 35.4792C47.6605 35.2895 47.0399 35.111 46.4146 34.9438L46.4792 34.7023C45.2317 34.3688 43.9657 34.0806 42.6832 33.8393L42.637 34.085C42.0036 33.9658 41.3661 33.8582 40.7247 33.7623L40.7616 33.5151C39.4871 33.3246 38.1975 33.1803 36.8946 33.0839L36.8761 33.3332C36.2342 33.2858 35.5891 33.25 34.9409 33.2261L34.9501 32.9763C34.3031 32.9525 33.6532 32.9404 33.0004 32.9404C32.3477 32.9404 31.6977 32.9525 31.0508 32.9763L31.06 33.2261C30.4118 33.25 29.7666 33.2858 29.1247 33.3332L29.1063 33.0839C27.8034 33.1803 26.5138 33.3246 25.2392 33.5151L25.2762 33.7623C24.6348 33.8582 23.9973 33.9658 23.3639 34.085L23.3176 33.8393C22.0351 34.0806 20.7692 34.3688 19.5217 34.7023L19.5863 34.9438C18.961 35.1109 18.3404 35.2895 17.7247 35.4792L17.6511 35.2403C16.4051 35.6242 15.179 36.0536 13.9748 36.5266L14.0662 36.7593C13.4641 36.9958 12.8675 37.2433 12.2767 37.5014L12.1766 37.2723C10.9837 37.7935 9.8141 38.3581 8.66983 38.9642L8.78683 39.1851C8.21531 39.4878 7.65013 39.8008 7.09154 40.124L6.96634 39.9076C5.84087 40.5588 4.74205 41.2509 3.67192 41.9819L3.81293 42.1884C3.27919 42.553 2.75261 42.9273 2.23346 43.311L2.08485 43.11C1.04003 43.8824 0.0251408 44.6929 -0.957767 45.5395L-0.794611 45.7289C-1.28413 46.1506 -1.76567 46.5812 -2.23899 47.0206L-2.40907 46.8374C-3.36054 47.7206 -4.27892 48.639 -5.16216 49.5905L-4.97893 49.7605C-5.41831 50.2339 -5.84894 50.7154 -6.27058 51.2049L-6.46 51.0418C-7.30662 52.0247 -8.11715 53.0396 -8.88952 54.0844L-8.68848 54.233C-9.07226 54.7521 -9.44658 55.2787 -9.81117 55.8125L-10.0176 55.6714C-10.7486 56.7416 -11.4407 57.8404 -12.0919 58.9659L-11.8755 59.0911C-12.1987 59.6497 -12.5118 60.2148 -12.8144 60.7864L-13.0354 60.6694C-13.6414 61.8136 -14.206 62.9832 -14.7272 64.1761L-14.4981 64.2762C-14.7563 64.8671 -15.0037 65.4636 -15.2402 66.0657L-15.4729 65.9743C-15.9459 67.1785 -16.3753 68.4046 -16.7592 69.6506L-16.5203 69.7242C-16.71 70.3399 -16.8886 70.9605 -17.0557 71.5858L-17.2972 71.5212C-17.6307 72.7687 -17.919 74.0346 -18.1602 75.3172L-17.9145 75.3634C-18.0337 75.9968 -18.1413 76.6343 -18.2372 77.2757L-18.4844 77.2388C-18.675 78.5133 -18.8193 79.8029 -18.9156 81.1058L-18.6663 81.1243C-18.7138 81.7662 -18.7495 82.4113 -18.7734 83.0595L-19.0232 83.0503C-19.0471 83.6973 -19.0591 84.3472 -19.0591 85C-19.0591 85.6527 -19.0471 86.3027 -19.0232 86.9496L-18.7734 86.9404C-18.7495 87.5886 -18.7138 88.2338 -18.6663 88.8757L-18.9156 88.8941C-18.8193 90.197 -18.675 91.4866 -18.4844 92.7612L-18.2372 92.7242C-18.1413 93.3656 -18.0337 94.0031 -17.9145 94.6365L-18.1602 94.6828C-17.919 95.9653 -17.6307 97.2312 -17.2972 98.4787L-17.0557 98.4141C-16.8886 99.0394 -16.71 99.66 -16.5203 100.276L-16.7592 100.349C-16.3753 101.595 -15.9459 102.821 -15.4729 104.026L-15.2402 103.934C-15.0037 104.536 -14.7562 105.133 -14.4981 105.724L-14.7272 105.824C-14.206 107.017 -13.6414 108.186 -13.0354 109.331L-12.8144 109.214C-12.5118 109.785 -12.1987 110.35 -11.8755 110.909L-12.0919 111.034C-11.4407 112.16 -10.7486 113.258 -10.0176 114.328L-9.81117 114.187C-9.44658 114.721 -9.07226 115.248 -8.68849 115.767L-8.88952 115.916C-8.11715 116.96 -7.30662 117.975 -6.46001 118.958L-6.27058 118.795C-5.84895 119.285 -5.41831 119.766 -4.97894 120.239L-5.16216 120.409C-4.27893 121.361 -3.36055 122.279 -2.40908 123.163L-2.23899 122.979C-1.76567 123.419 -1.28413 123.849 -0.794615 124.271L-0.957771 124.46C0.0251369 125.307 1.04003 126.118 2.08484 126.89L2.23346 126.689C2.75261 127.073 3.27918 127.447 3.81293 127.812L3.67191 128.018C4.74205 128.749 5.84087 129.441 6.96633 130.092L7.09154 129.876C7.65013 130.199 8.21531 130.512 8.78684 130.815L8.66983 131.036C9.8141 131.642 10.9837 132.206 12.1766 132.728L12.2767 132.499C12.8675 132.757 13.4641 133.004 14.0662 133.241L13.9748 133.473C15.179 133.946 16.4051 134.376 17.6511 134.76L17.7247 134.521C18.3404 134.71 18.961 134.889 19.5863 135.056L19.5217 135.298C20.7692 135.631 22.0351 135.919 23.3176 136.161L23.3638 135.915C23.9973 136.034 24.6348 136.142 25.2762 136.238L25.2392 136.485C26.5138 136.675 27.8034 136.82 29.1063 136.916L29.1247 136.667Z" stroke="white" stroke-opacity="0.5" stroke-width="0.5" stroke-dasharray="4 2"/>
<path d="M33 149C68.3462 149 97 120.346 97 85C97 49.6538 68.3462 21 33 21C-2.34622 21 -31 49.6538 -31 85C-31 120.346 -2.34622 149 33 149Z" fill="white" fill-opacity="0.15"/>
<path d="M29.0568 148.881C29.7101 148.92 30.366 148.95 31.0244 148.97L31.0168 149.22C31.6754 149.24 32.3365 149.25 33 149.25C33.6634 149.25 34.3245 149.24 34.9832 149.22L34.9756 148.97C35.634 148.95 36.2899 148.92 36.9432 148.881L36.9583 149.13C38.2836 149.049 39.598 148.929 40.9004 148.769L40.87 148.521C41.5229 148.441 42.1729 148.351 42.8196 148.251L42.8576 148.498C44.1688 148.297 45.4669 148.055 46.7507 147.775L46.6974 147.531C47.3406 147.391 47.9801 147.241 48.6159 147.081L48.6767 147.324C49.9615 147.002 51.2309 146.641 52.4837 146.243L52.408 146.004C53.0355 145.805 53.6588 145.596 54.2778 145.378L54.3609 145.614C55.6087 145.174 56.8387 144.697 58.0498 144.184L57.9523 143.953C58.5585 143.696 59.1599 143.431 59.7564 143.156L59.861 143.383C61.0617 142.829 62.2423 142.24 63.4016 141.616L63.2832 141.396C63.8626 141.084 64.4366 140.764 65.0051 140.435L65.1303 140.651C66.2739 139.99 67.3952 139.294 68.4928 138.565L68.3545 138.357C68.9023 137.993 69.4442 137.621 69.98 137.241L70.1247 137.445C71.2018 136.681 72.2543 135.885 73.2809 135.058L73.1241 134.863C73.6359 134.451 74.1413 134.031 74.64 133.603L74.8028 133.793C75.8046 132.934 76.7797 132.044 77.7266 131.126L77.5525 130.946C78.0243 130.489 78.489 130.024 78.9464 129.553L79.1259 129.727C80.0443 128.78 80.9337 127.805 81.7928 126.803L81.6031 126.64C82.0307 126.141 82.4508 125.636 82.8632 125.124L83.0579 125.281C83.885 124.254 84.6812 123.202 85.4451 122.125L85.2411 121.98C85.6211 121.444 85.9931 120.902 86.3568 120.355L86.5651 120.493C87.2938 119.395 87.9897 118.274 88.6514 117.13L88.435 117.005C88.7639 116.437 89.0844 115.863 89.3961 115.283L89.6163 115.402C90.2401 114.242 90.8294 113.062 91.3827 111.861L91.1556 111.756C91.4305 111.16 91.6965 110.558 91.9534 109.952L92.1836 110.05C92.6968 108.839 93.1739 107.609 93.6137 106.361L93.3779 106.278C93.596 105.659 93.8049 105.036 94.0043 104.408L94.2426 104.484C94.6408 103.231 95.0016 101.962 95.3238 100.677L95.0813 100.616C95.2407 99.9801 95.3906 99.3406 95.5309 98.6974L95.7751 98.7507C96.055 97.4669 96.2966 96.1688 96.4985 94.8577L96.2514 94.8196C96.351 94.1729 96.4409 93.523 96.5209 92.87L96.7691 92.9004C96.9288 91.598 97.0495 90.2836 97.1301 88.9584L96.8805 88.9432C96.9202 88.2899 96.9501 87.634 96.9701 86.9756L97.22 86.9832C97.2399 86.3246 97.25 85.6635 97.25 85C97.25 84.3366 97.2399 83.6755 97.22 83.0168L96.9701 83.0244C96.9501 82.366 96.9202 81.7101 96.8805 81.0568L97.1301 81.0417C97.0495 79.7164 96.9288 78.402 96.7691 77.0996L96.5209 77.13C96.4409 76.4771 96.351 75.8271 96.2514 75.1804L96.4985 75.1424C96.2966 73.8312 96.055 72.5331 95.7751 71.2493L95.5309 71.3026C95.3906 70.6594 95.2407 70.0199 95.0813 69.3841L95.3238 69.3233C95.0016 68.0385 94.6408 66.7691 94.2426 65.5163L94.0043 65.592C93.8049 64.9645 93.596 64.3411 93.3779 63.7222L93.6137 63.6391C93.174 62.3914 92.6968 61.1613 92.1836 59.9502L91.9534 60.0477C91.6965 59.4415 91.4305 58.8401 91.1556 58.2436L91.3827 58.139C90.8294 56.9383 90.2401 55.7577 89.6163 54.5984L89.3961 54.7168C89.0844 54.1374 88.7639 53.5634 88.435 52.9949L88.6514 52.8697C87.9897 51.7261 87.2938 50.6048 86.5651 49.5072L86.3568 49.6455C85.9931 49.0977 85.6211 48.5558 85.2412 48.02L85.4451 47.8753C84.6812 46.7982 83.885 45.7457 83.0579 44.7191L82.8632 44.8759C82.4508 44.3641 82.0307 43.8587 81.6031 43.36L81.7928 43.1972C80.9337 42.1954 80.0443 41.2203 79.1259 40.2734L78.9464 40.4475C78.489 39.9757 78.0243 39.511 77.5526 39.0536L77.7266 38.8741C76.7797 37.9558 75.8046 37.0663 74.8028 36.2072L74.64 36.397C74.1413 35.9693 73.6359 35.5492 73.1241 35.1368L73.2809 34.9421C72.2544 34.115 71.2018 33.3188 70.1247 32.5549L69.9801 32.7588C69.4443 32.3789 68.9024 32.0069 68.3545 31.6432L68.4928 31.4349C67.3952 30.7062 66.2739 30.0103 65.1303 29.3486L65.0051 29.565C64.4366 29.2361 63.8626 28.9156 63.2832 28.6039L63.4016 28.3837C62.2423 27.7599 61.0617 27.1706 59.861 26.6173L59.7564 26.8444C59.1599 26.5695 58.5585 26.3035 57.9523 26.0466L58.0498 25.8164C56.8387 25.3032 55.6087 24.8261 54.3609 24.3863L54.2778 24.6221C53.6589 24.404 53.0355 24.1951 52.408 23.9957L52.4837 23.7574C51.2309 23.3592 49.9615 22.9984 48.6767 22.6762L48.6159 22.9187C47.9801 22.7593 47.3406 22.6094 46.6974 22.4691L46.7507 22.2249C45.4669 21.945 44.1688 21.7034 42.8577 21.5015L42.8196 21.7486C42.1729 21.649 41.523 21.5591 40.87 21.4791L40.9004 21.2309C39.598 21.0712 38.2836 20.9505 36.9584 20.87L36.9432 21.1195C36.2899 21.0798 35.634 21.0499 34.9756 21.0299L34.9832 20.78C34.3246 20.7601 33.6635 20.75 33 20.75C32.3366 20.75 31.6755 20.7601 31.0168 20.78L31.0244 21.0299C30.366 21.0499 29.7101 21.0798 29.0568 21.1195L29.0417 20.8699C27.7164 20.9505 26.402 21.0712 25.0996 21.2309L25.13 21.4791C24.4771 21.5591 23.8271 21.649 23.1804 21.7486L23.1424 21.5015C21.8312 21.7034 20.5331 21.945 19.2493 22.2249L19.3026 22.4691C18.6594 22.6094 18.0199 22.7593 17.3841 22.9187L17.3233 22.6762C16.0385 22.9983 14.7691 23.3592 13.5163 23.7574L13.592 23.9957C12.9645 24.1951 12.3411 24.404 11.7222 24.6221L11.6391 24.3863C10.3914 24.8261 9.16127 25.3032 7.9502 25.8164L8.04775 26.0466C7.44154 26.3035 6.8401 26.5695 6.24362 26.8444L6.13898 26.6173C4.93833 27.1706 3.75766 27.7599 2.59836 28.3837L2.71682 28.6039C2.13744 28.9156 1.5634 29.2361 0.994896 29.565L0.869694 29.3486C-0.273891 30.0103 -1.39519 30.7062 -2.49279 31.4349L-2.35451 31.6432C-2.90234 32.0069 -3.44424 32.3789 -3.98005 32.7588L-4.12466 32.5549C-5.20178 33.3188 -6.25434 34.115 -7.28093 34.9421L-7.12408 35.1368C-7.63593 35.5492 -8.14131 35.9693 -8.64002 36.3969L-8.80276 36.2072C-9.80461 37.0663 -10.7797 37.9557 -11.7266 38.8741L-11.5525 39.0535C-12.0243 39.511 -12.489 39.9757 -12.9464 40.4474L-13.1259 40.2734C-14.0442 41.2203 -14.9337 42.1954 -15.7928 43.1972L-15.603 43.36C-16.0307 43.8587 -16.4508 44.3641 -16.8632 44.8759L-17.0579 44.7191C-17.885 45.7456 -18.6812 46.7982 -19.4451 47.8753L-19.2412 48.0199C-19.6211 48.5557 -19.9931 49.0977 -20.3568 49.6455L-20.5651 49.5072C-21.2938 50.6048 -21.9897 51.7261 -22.6514 52.8697L-22.435 52.9949C-22.7639 53.5634 -23.0844 54.1374 -23.3961 54.7168L-23.6163 54.5984C-24.2401 55.7577 -24.8294 56.9383 -25.3827 58.139L-25.1556 58.2436C-25.4305 58.8401 -25.6965 59.4415 -25.9534 60.0477L-26.1836 59.9502C-26.6968 61.1613 -27.1739 62.3913 -27.6137 63.6391L-27.3779 63.7222C-27.596 64.3411 -27.8049 64.9645 -28.0043 65.592L-28.2426 65.5163C-28.6408 66.7691 -29.0016 68.0385 -29.3238 69.3233L-29.0813 69.3841C-29.2407 70.0199 -29.3906 70.6594 -29.5309 71.3026L-29.7751 71.2493C-30.055 72.5331 -30.2966 73.8312 -30.4985 75.1423L-30.2514 75.1804C-30.351 75.8271 -30.4409 76.477 -30.5209 77.13L-30.7691 77.0996C-30.9288 78.402 -31.0495 79.7164 -31.13 81.0416L-30.8805 81.0568C-30.9202 81.7101 -30.9501 82.366 -30.9701 83.0244L-31.22 83.0168C-31.2399 83.6754 -31.25 84.3365 -31.25 85C-31.25 85.6634 -31.2399 86.3245 -31.22 86.9832L-30.9701 86.9756C-30.9501 87.634 -30.9202 88.2899 -30.8805 88.9432L-31.1301 88.9583C-31.0495 90.2836 -30.9288 91.598 -30.7691 92.9004L-30.5209 92.87C-30.4409 93.5229 -30.351 94.1729 -30.2514 94.8196L-30.4985 94.8576C-30.2966 96.1688 -30.055 97.4669 -29.7751 98.7507L-29.5309 98.6974C-29.3906 99.3406 -29.2407 99.9801 -29.0813 100.616L-29.3238 100.677C-29.0017 101.961 -28.6408 103.231 -28.2426 104.484L-28.0043 104.408C-27.8049 105.036 -27.596 105.659 -27.3779 106.278L-27.6137 106.361C-27.1739 107.609 -26.6968 108.839 -26.1836 110.05L-25.9534 109.952C-25.6965 110.558 -25.4305 111.16 -25.1556 111.756L-25.3827 111.861C-24.8294 113.062 -24.2401 114.242 -23.6163 115.402L-23.3961 115.283C-23.0844 115.863 -22.7639 116.437 -22.435 117.005L-22.6514 117.13C-21.9897 118.274 -21.2938 119.395 -20.5651 120.493L-20.3568 120.355C-19.9931 120.902 -19.6211 121.444 -19.2412 121.98L-19.4451 122.125C-18.6812 123.202 -17.885 124.254 -17.0579 125.281L-16.8632 125.124C-16.4508 125.636 -16.0307 126.141 -15.6031 126.64L-15.7928 126.803C-14.9337 127.805 -14.0443 128.78 -13.1259 129.727L-12.9465 129.553C-12.489 130.024 -12.0243 130.489 -11.5526 130.946L-11.7266 131.126C-10.7797 132.044 -9.80463 132.934 -8.80277 133.793L-8.64003 133.603C-8.14132 134.031 -7.63595 134.451 -7.12409 134.863L-7.28094 135.058C-6.25436 135.885 -5.2018 136.681 -4.12468 137.445L-3.98006 137.241C-3.44426 137.621 -2.90235 137.993 -2.35452 138.357L-2.4928 138.565C-1.3952 139.294 -0.273903 139.99 0.869686 140.651L0.994886 140.435C1.56339 140.764 2.13743 141.084 2.71682 141.396L2.59835 141.616C3.75765 142.24 4.93832 142.829 6.13897 143.383L6.24361 143.156C6.84009 143.431 7.44152 143.696 8.04773 143.953L7.95019 144.184C9.16126 144.697 10.3913 145.174 11.6391 145.614L11.7222 145.378C12.3411 145.596 12.9645 145.805 13.592 146.004L13.5163 146.243C14.7691 146.641 16.0385 147.002 17.3233 147.324L17.3841 147.081C18.0199 147.241 18.6594 147.391 19.3026 147.531L19.2493 147.775C20.5331 148.055 21.8312 148.297 23.1423 148.498L23.1804 148.251C23.8271 148.351 24.477 148.441 25.13 148.521L25.0996 148.769C26.402 148.929 27.7164 149.049 29.0416 149.13L29.0568 148.881Z" stroke="white" stroke-opacity="0.5" stroke-width="0.5" stroke-dasharray="4 2"/>
</g>
<path d="M49.36 67V62.06H48.2V60.58H49.36V59.14H48.2V57.66H49.36V52.72H52.5L54.06 57.66H55.88V52.72H58.1V57.66H59.24V59.14H58.1V60.58H59.24V62.06H58.1V67H54.94L53.34 62.06H51.58V67H49.36ZM51.5 57.66H52.06L51.48 55.74H51.4L51.5 57.66ZM51.58 60.58H52.9L52.46 59.14H51.54L51.58 60.58ZM55 60.58H55.92L55.88 59.14H54.54L55 60.58ZM55.94 63.88H56.04L55.96 62.06H55.42L55.94 63.88ZM71.1053 62.34H69.5053V58.7H67.1853V62.34H62.8053L67.6253 53H65.1253L60.3053 62.34V64.48H67.1853V67H69.5053V64.48H71.1053V62.34ZM81.8563 57.52C81.8563 54.7 79.8162 52.74 76.9162 52.74C74.0162 52.74 71.9562 54.7 71.9562 57.52C71.9562 60.34 74.0162 62.3 76.9162 62.3H77.1562L73.9562 67H76.5962L81.0162 60.34C81.5562 59.56 81.8563 58.6 81.8563 57.52ZM74.2562 57.52C74.2562 55.92 75.3962 54.92 76.9162 54.92C78.4362 54.92 79.5562 55.92 79.5562 57.52C79.5562 59.12 78.4362 60.12 76.9162 60.12C75.3962 60.12 74.2562 59.1 74.2562 57.52ZM88.8292 58.72L91.6692 54.96V53H83.0692V55.16H88.9292L85.9092 59.14L86.8292 60.52H87.3492C88.9292 60.52 89.9492 61.36 89.9492 62.76C89.9492 64.16 88.9292 65.02 87.3492 65.02C85.9492 65.02 85.0092 64.4 84.6092 63.22L82.6492 64.36C83.4292 66.32 85.2892 67.26 87.3492 67.26C89.9292 67.26 92.2492 65.7 92.2492 62.76C92.2492 60.58 90.7492 59.18 88.8292 58.72ZM97.2194 64.6H94.8194L94.0194 69.8H95.8194L97.2194 64.6ZM105.332 58.72L108.172 54.96V53H99.5723V55.16H105.432L102.412 59.14L103.332 60.52H103.852C105.432 60.52 106.452 61.36 106.452 62.76C106.452 64.16 105.432 65.02 103.852 65.02C102.452 65.02 101.512 64.4 101.112 63.22L99.1523 64.36C99.9323 66.32 101.792 67.26 103.852 67.26C106.432 67.26 108.752 65.7 108.752 62.76C108.752 60.58 107.252 59.18 105.332 58.72ZM119.96 57.52C119.96 54.7 117.92 52.74 115.02 52.74C112.12 52.74 110.06 54.7 110.06 57.52C110.06 60.34 112.12 62.3 115.02 62.3H115.26L112.06 67H114.7L119.12 60.34C119.66 59.56 119.96 58.6 119.96 57.52ZM112.36 57.52C112.36 55.92 113.5 54.92 115.02 54.92C116.54 54.92 117.66 55.92 117.66 57.52C117.66 59.12 116.54 60.12 115.02 60.12C113.5 60.12 112.36 59.1 112.36 57.52ZM125.968 58.28H124.208L124.448 55.16H130.128V53H122.328L121.788 60.52H125.868C127.388 60.52 128.428 61.36 128.428 62.76C128.428 64.16 127.388 65.02 125.828 65.02C124.368 65.02 123.408 64.36 123.048 63.12L121.068 64.26C121.808 66.28 123.708 67.26 125.828 67.26C128.408 67.26 130.728 65.7 130.728 62.76C130.728 59.84 128.508 58.28 125.968 58.28Z" fill="white"/>
<path d="M50.772 31.2L48.196 32.096L48.518 33.216L50.604 32.6V41H51.892V31.2H50.772ZM53.7742 41H60.1022V39.74H55.6642L58.1702 37.248C59.1362 36.282 59.9202 35.232 59.9202 34.014C59.9202 32.082 58.3942 31.018 56.8682 31.018C55.5942 31.018 54.4042 31.648 53.7742 32.95L54.8662 33.594C55.2862 32.712 55.9862 32.278 56.8822 32.278C57.7922 32.278 58.6182 32.88 58.6182 34.028C58.6182 34.854 58.0022 35.638 57.2322 36.408L53.7742 39.936V41ZM69.585 31.2H65.763V41H69.585C72.287 41 74.233 38.816 74.233 36.1C74.233 33.384 72.287 31.2 69.585 31.2ZM69.585 39.768H67.065V32.432H69.585C71.601 32.432 72.987 34.028 72.987 36.1C72.987 38.172 71.601 39.768 69.585 39.768ZM76.8199 38.06H82.6859C82.7139 37.878 82.7279 37.696 82.7279 37.514C82.7279 35.554 81.3559 33.818 79.2419 33.818C77.0579 33.818 75.5739 35.428 75.5739 37.5C75.5739 39.6 77.0719 41.182 79.3259 41.182C80.7259 41.182 81.7899 40.552 82.4059 39.6L81.3699 39.012C81.0199 39.586 80.3199 40.034 79.3539 40.034C78.0519 40.034 77.0579 39.32 76.8199 38.06ZM79.2419 34.966C80.2919 34.966 81.2859 35.61 81.4959 36.996H76.8199C77.0159 35.778 77.9259 34.966 79.2419 34.966ZM84.408 41H85.626V30.78H84.408V41ZM88.3802 32.726C88.8282 32.726 89.1922 32.362 89.1922 31.914C89.1922 31.466 88.8282 31.088 88.3802 31.088C87.9182 31.088 87.5542 31.466 87.5542 31.914C87.5542 32.362 87.9182 32.726 88.3802 32.726ZM87.7642 41H88.9822V34H87.7642V41ZM96.0203 34L93.8223 39.698L91.6243 34H90.3083L93.1083 41H94.5363L97.3363 34H96.0203ZM99.227 38.06H105.093C105.121 37.878 105.135 37.696 105.135 37.514C105.135 35.554 103.763 33.818 101.649 33.818C99.465 33.818 97.981 35.428 97.981 37.5C97.981 39.6 99.479 41.182 101.733 41.182C103.133 41.182 104.197 40.552 104.813 39.6L103.777 39.012C103.427 39.586 102.727 40.034 101.761 40.034C100.459 40.034 99.465 39.32 99.227 38.06ZM101.649 34.966C102.699 34.966 103.693 35.61 103.903 36.996H99.227C99.423 35.778 100.333 34.966 101.649 34.966ZM108.033 35.176V34H106.815V41H108.033V37.29C108.033 35.638 109.167 35.106 110.217 35.148V33.874C109.335 33.874 108.481 34.196 108.033 35.176ZM112.305 32.726C112.753 32.726 113.117 32.362 113.117 31.914C113.117 31.466 112.753 31.088 112.305 31.088C111.843 31.088 111.479 31.466 111.479 31.914C111.479 32.362 111.843 32.726 112.305 32.726ZM111.689 41H112.907V34H111.689V41ZM115.899 38.06H121.765C121.793 37.878 121.807 37.696 121.807 37.514C121.807 35.554 120.435 33.818 118.321 33.818C116.137 33.818 114.653 35.428 114.653 37.5C114.653 39.6 116.151 41.182 118.405 41.182C119.805 41.182 120.869 40.552 121.485 39.6L120.449 39.012C120.099 39.586 119.399 40.034 118.433 40.034C117.131 40.034 116.137 39.32 115.899 38.06ZM118.321 34.966C119.371 34.966 120.365 35.61 120.575 36.996H115.899C116.095 35.778 117.005 34.966 118.321 34.966ZM124.264 35.89C124.264 35.26 124.88 34.952 125.51 34.952C126.126 34.952 126.742 35.218 127.008 35.848L128.03 35.274C127.582 34.364 126.658 33.818 125.51 33.818C124.096 33.818 123.032 34.672 123.032 35.904C123.032 38.438 126.952 37.584 126.952 39.082C126.952 39.768 126.308 40.034 125.566 40.034C124.698 40.034 124.054 39.614 123.83 38.942L122.78 39.544C123.186 40.51 124.166 41.182 125.566 41.182C127.064 41.182 128.184 40.384 128.184 39.082C128.184 36.506 124.264 37.388 124.264 35.89Z" fill="white"/>
<path d="M209.36 67V62.06H208.2V60.58H209.36V59.14H208.2V57.66H209.36V52.72H212.5L214.06 57.66H215.88V52.72H218.1V57.66H219.24V59.14H218.1V60.58H219.24V62.06H218.1V67H214.94L213.34 62.06H211.58V67H209.36ZM211.5 57.66H212.06L211.48 55.74H211.4L211.5 57.66ZM211.58 60.58H212.9L212.46 59.14H211.54L211.58 60.58ZM215 60.58H215.92L215.88 59.14H214.54L215 60.58ZM215.94 63.88H216.04L215.96 62.06H215.42L215.94 63.88ZM223.785 53L220.105 54.3L220.665 56.26L223.485 55.46V67H225.785V53H223.785ZM233.987 67.26C237.507 67.26 239.487 64.32 239.487 60C239.487 55.68 237.507 52.74 233.987 52.74C230.467 52.74 228.487 55.68 228.487 60C228.487 64.32 230.467 67.26 233.987 67.26ZM233.987 65.02C231.927 65.02 230.787 63.22 230.787 60C230.787 56.78 231.927 54.98 233.987 54.98C236.067 54.98 237.187 56.78 237.187 60C237.187 63.22 236.067 65.02 233.987 65.02ZM246.984 67.26C250.504 67.26 252.484 64.32 252.484 60C252.484 55.68 250.504 52.74 246.984 52.74C243.464 52.74 241.484 55.68 241.484 60C241.484 64.32 243.464 67.26 246.984 67.26ZM246.984 65.02C244.924 65.02 243.784 63.22 243.784 60C243.784 56.78 244.924 54.98 246.984 54.98C249.064 54.98 250.184 56.78 250.184 60C250.184 63.22 249.064 65.02 246.984 65.02ZM257.337 64.6H254.937L254.137 69.8H255.937L257.337 64.6ZM264.464 67.26C267.984 67.26 269.964 64.32 269.964 60C269.964 55.68 267.984 52.74 264.464 52.74C260.944 52.74 258.964 55.68 258.964 60C258.964 64.32 260.944 67.26 264.464 67.26ZM264.464 65.02C262.404 65.02 261.264 63.22 261.264 60C261.264 56.78 262.404 54.98 264.464 54.98C266.544 54.98 267.664 56.78 267.664 60C267.664 63.22 266.544 65.02 264.464 65.02ZM277.462 67.26C280.982 67.26 282.962 64.32 282.962 60C282.962 55.68 280.982 52.74 277.462 52.74C273.942 52.74 271.962 55.68 271.962 60C271.962 64.32 273.942 67.26 277.462 67.26ZM277.462 65.02C275.402 65.02 274.262 63.22 274.262 60C274.262 56.78 275.402 54.98 277.462 54.98C279.542 54.98 280.662 56.78 280.662 60C280.662 63.22 279.542 65.02 277.462 65.02ZM290.459 67.26C293.979 67.26 295.959 64.32 295.959 60C295.959 55.68 293.979 52.74 290.459 52.74C286.939 52.74 284.959 55.68 284.959 60C284.959 64.32 286.939 67.26 290.459 67.26ZM290.459 65.02C288.399 65.02 287.259 63.22 287.259 60C287.259 56.78 288.399 54.98 290.459 54.98C292.539 54.98 293.659 56.78 293.659 60C293.659 63.22 292.539 65.02 290.459 65.02Z" fill="white"/>
<path d="M212.424 35.218L214.552 32.348V31.2H208.672V32.418H213.026L210.758 35.484L211.276 36.282H211.612C212.788 36.282 213.67 36.926 213.67 38.102C213.67 39.264 212.788 39.908 211.612 39.908C210.548 39.908 209.778 39.46 209.484 38.55L208.392 39.194C208.896 40.51 210.17 41.182 211.612 41.182C213.376 41.182 214.972 40.09 214.972 38.102C214.972 36.478 213.838 35.484 212.424 35.218ZM223.164 41H224.634L228.148 31.2H226.734L223.906 39.376L221.064 31.2H219.664L223.164 41ZM229.794 32.726C230.242 32.726 230.606 32.362 230.606 31.914C230.606 31.466 230.242 31.088 229.794 31.088C229.332 31.088 228.968 31.466 228.968 31.914C228.968 32.362 229.332 32.726 229.794 32.726ZM229.178 41H230.396V34H229.178V41ZM233.571 35.89C233.571 35.26 234.187 34.952 234.817 34.952C235.433 34.952 236.049 35.218 236.315 35.848L237.337 35.274C236.889 34.364 235.965 33.818 234.817 33.818C233.403 33.818 232.339 34.672 232.339 35.904C232.339 38.438 236.259 37.584 236.259 39.082C236.259 39.768 235.615 40.034 234.873 40.034C234.005 40.034 233.361 39.614 233.137 38.942L232.087 39.544C232.493 40.51 233.473 41.182 234.873 41.182C236.371 41.182 237.491 40.384 237.491 39.082C237.491 36.506 233.571 37.388 233.571 35.89ZM239.76 32.726C240.208 32.726 240.572 32.362 240.572 31.914C240.572 31.466 240.208 31.088 239.76 31.088C239.298 31.088 238.934 31.466 238.934 31.914C238.934 32.362 239.298 32.726 239.76 32.726ZM239.144 41H240.362V34H239.144V41ZM246.308 35.176V34H244.446V32.04L243.228 32.404V34H241.842V35.176H243.228V38.97C243.228 40.72 244.208 41.28 246.308 41V39.908C245.062 39.964 244.446 40.034 244.446 38.97V35.176H246.308ZM248.739 35.89C248.739 35.26 249.355 34.952 249.985 34.952C250.601 34.952 251.217 35.218 251.483 35.848L252.505 35.274C252.057 34.364 251.133 33.818 249.985 33.818C248.571 33.818 247.507 34.672 247.507 35.904C247.507 38.438 251.427 37.584 251.427 39.082C251.427 39.768 250.783 40.034 250.041 40.034C249.173 40.034 248.529 39.614 248.305 38.942L247.255 39.544C247.661 40.51 248.641 41.182 250.041 41.182C251.539 41.182 252.659 40.384 252.659 39.082C252.659 36.506 248.739 37.388 248.739 35.89Z" fill="white"/>
</g>
</g>
<defs>
<filter id="filter0_d" x="0" y="0" width="376" height="148" filterUnits="userSpaceOnUse" color-interpolation-filters="sRGB">
<feFlood flood-opacity="0" result="BackgroundImageFix"/>
<feColorMatrix in="SourceAlpha" type="matrix" values="0 0 0 0 0 0 0 0 0 0 0 0 0 0 0 0 0 0 127 0" result="hardAlpha"/>
<feMorphology radius="16" operator="erode" in="SourceAlpha" result="effect1_dropShadow"/>
<feOffset dy="24"/>
<feGaussianBlur stdDeviation="20"/>
<feColorMatrix type="matrix" values="0 0 0 0 0.313726 0 0 0 0 0.321569 0 0 0 0 0.356863 0 0 0 0.45 0"/>
<feBlend mode="normal" in2="BackgroundImageFix" result="effect1_dropShadow"/>
<feBlend mode="normal" in="SourceGraphic" in2="effect1_dropShadow" result="shape"/>
</filter>
<linearGradient id="paint0_linear" x1="-21.3254" y1="-11.6848" x2="338.945" y2="132.598" gradientUnits="userSpaceOnUse">
<stop stop-color="#466AE8"/>
<stop offset="0.782081" stop-color="#3256D5"/>
</linearGradient>
<clipPath id="clip0">
<rect x="24" width="328" height="100" rx="8" fill="white"/>
</clipPath>
</defs>
</svg>
