<svg width="376" height="148" viewBox="0 0 376 148" fill="none" xmlns="http://www.w3.org/2000/svg">
<g filter="url(#filter0_d)">
<g clip-path="url(#clip0)">
<path d="M24 8C24 3.58172 27.5817 0 32 0H344C348.418 0 352 3.58172 352 8V92C352 96.4183 348.418 100 344 100H32C27.5817 100 24 96.4183 24 92V8Z" fill="url(#paint0_linear)"/>
<path d="M33.0005 123.095C54.0399 123.095 71.0957 106.039 71.0957 85C71.0957 63.9606 54.0399 46.9048 33.0005 46.9048C11.9611 46.9048 -5.09473 63.9606 -5.09473 85C-5.09473 106.039 11.9611 123.095 33.0005 123.095Z" fill="white" fill-opacity="0.15"/>
<path d="M29.0173 122.89C29.6755 122.958 30.3386 123.01 31.0063 123.044L30.9934 123.294C31.6581 123.328 32.3273 123.345 33.0005 123.345C33.6737 123.345 34.3429 123.328 35.0076 123.294L34.9948 123.044C35.6624 123.01 36.3256 122.958 36.9837 122.89L37.0095 123.138C38.3533 122.999 39.6765 122.79 40.9755 122.515L40.9238 122.27C41.5768 122.132 42.2237 121.977 42.8639 121.806L42.9284 122.048C44.2297 121.7 45.5037 121.285 46.7466 120.808L46.657 120.574C47.2792 120.335 47.8935 120.08 48.4995 119.81L48.6013 120.039C49.8284 119.491 51.0214 118.882 52.1764 118.213L52.0512 117.997C52.6274 117.664 53.1942 117.316 53.7508 116.953L53.8872 117.163C55.0111 116.431 56.0943 115.643 57.1326 114.801L56.9751 114.607C57.4919 114.188 57.9974 113.756 58.4912 113.311L58.6586 113.496C59.6533 112.6 60.6007 111.653 61.4969 110.658L61.3112 110.491C61.7561 109.997 62.1883 109.491 62.6073 108.975L62.8015 109.132C63.6433 108.094 64.432 107.011 65.1633 105.887L64.9538 105.75C65.316 105.194 65.6641 104.627 65.9975 104.051L66.2139 104.176C66.8822 103.021 67.4919 101.828 68.0391 100.601L67.8107 100.499C68.081 99.893 68.3358 99.2787 68.5748 98.6565L68.8082 98.7461C69.2856 97.5033 69.7002 96.2292 70.048 94.9279L69.8065 94.8634C69.9776 94.2232 70.1325 93.5763 70.2707 92.9233L70.5152 92.975C70.79 91.6761 70.9991 90.3528 71.1387 89.0091L70.89 88.9832C70.9584 88.3251 71.01 87.6619 71.0444 86.9943L71.2941 87.0071C71.3284 86.3424 71.3457 85.6732 71.3457 85C71.3457 84.3268 71.3284 83.6576 71.2941 82.9929L71.0444 83.0058C71.01 82.3381 70.9584 81.675 70.89 81.0168L71.1387 80.991C70.9991 79.6472 70.79 78.324 70.5152 77.025L70.2707 77.0767C70.1325 76.4237 69.9776 75.7769 69.8065 75.1367L70.048 75.0721C69.7002 73.7708 69.2856 72.4968 68.8082 71.2539L68.5748 71.3436C68.3358 70.7214 68.081 70.107 67.8107 69.5011L68.0391 69.3993C67.4919 68.1721 66.8822 66.9791 66.2139 65.8242L65.9975 65.9494C65.6641 65.3731 65.316 64.8064 64.9538 64.2497L65.1633 64.1134C64.432 62.9894 63.6433 61.9063 62.8015 60.8679L62.6073 61.0254C62.1883 60.5087 61.7561 60.0031 61.3112 59.5093L61.4969 59.3419C60.6008 58.3473 59.6533 57.3998 58.6586 56.5036L58.4913 56.6894C57.9974 56.2444 57.4919 55.8122 56.9751 55.3933L57.1326 55.1991C56.0943 54.3572 55.0111 53.5686 53.8872 52.8372L53.7508 53.0468C53.1942 52.6845 52.6274 52.3364 52.0512 52.003L52.1764 51.7866C51.0214 51.1184 49.8284 50.5086 48.6013 49.9615L48.4995 50.1898C47.8935 49.9196 47.2792 49.6647 46.657 49.4257L46.7466 49.1923C45.5038 48.7149 44.2297 48.3004 42.9284 47.9525L42.8639 48.194C42.2237 48.0229 41.5768 47.868 40.9238 47.7299L40.9755 47.4853C39.6765 47.2105 38.3533 47.0015 37.0095 46.8619L36.9837 47.1105C36.3256 47.0421 35.6624 46.9905 34.9948 46.9561L35.0076 46.7064C34.3429 46.6721 33.6737 46.6548 33.0005 46.6548C32.3273 46.6548 31.6581 46.6721 30.9934 46.7064L31.0063 46.9561C30.3386 46.9905 29.6755 47.0421 29.0173 47.1105L28.9915 46.8619C27.6477 47.0015 26.3245 47.2105 25.0255 47.4853L25.0772 47.7299C24.4242 47.868 23.7774 48.0229 23.1372 48.194L23.0726 47.9525C21.7713 48.3003 20.4973 48.7149 19.2544 49.1923L19.3441 49.4257C18.7219 49.6647 18.1075 49.9196 17.5016 50.1898L17.3997 49.9615C16.1726 50.5086 14.9796 51.1184 13.8247 51.7866L13.9499 52.003C13.3736 52.3364 12.8069 52.6845 12.2502 53.0468L12.1138 52.8372C10.9899 53.5686 9.90675 54.3572 8.86844 55.1991L9.02589 55.3933C8.50916 55.8122 8.00362 56.2444 7.50977 56.6894L7.34243 56.5036C6.34777 57.3998 5.40028 58.3473 4.50412 59.3419L4.68985 59.5093C4.24491 60.0031 3.81271 60.5087 3.39376 61.0254L3.19956 60.8679C2.35773 61.9063 1.56907 62.9894 0.837704 64.1133L1.04725 64.2497C0.685007 64.8064 0.336922 65.3731 0.00349903 65.9494L-0.212891 65.8242C-0.881131 66.9791 -1.49087 68.1721 -2.03805 69.3992L-1.80972 69.5011C-2.07993 70.107 -2.33479 70.7214 -2.57379 71.3436L-2.80716 71.2539C-3.28458 72.4968 -3.69916 73.7708 -4.047 75.0721L-3.80548 75.1367C-3.97661 75.7769 -4.13149 76.4237 -4.26963 77.0767L-4.51422 77.025C-4.78901 78.324 -4.99803 79.6472 -5.13765 80.991L-4.88899 81.0168C-4.95737 81.675 -5.00899 82.3381 -5.04343 83.0058L-5.29309 82.9929C-5.32738 83.6576 -5.34473 84.3268 -5.34473 85C-5.34473 85.6732 -5.32738 86.3424 -5.29309 87.0071L-5.04343 86.9943C-5.00899 87.6619 -4.95737 88.3251 -4.88899 88.9832L-5.13765 89.0091C-4.99803 90.3528 -4.78901 91.6761 -4.51422 92.975L-4.26963 92.9233C-4.13149 93.5763 -3.97661 94.2232 -3.80548 94.8634L-4.047 94.9279C-3.69916 96.2292 -3.28458 97.5033 -2.80716 98.7461L-2.57379 98.6565C-2.33479 99.2787 -2.07994 99.893 -1.80972 100.499L-2.03805 100.601C-1.49087 101.828 -0.881133 103.021 -0.212892 104.176L0.0034976 104.051C0.33692 104.627 0.685005 105.194 1.04724 105.75L0.837701 105.887C1.56906 107.011 2.35773 108.094 3.19956 109.132L3.39375 108.975C3.8127 109.491 4.2449 109.997 4.68985 110.491L4.50411 110.658C5.40027 111.653 6.34777 112.6 7.34243 113.496L7.50977 113.311C8.00361 113.756 8.50916 114.188 9.02588 114.607L8.86844 114.801C9.90674 115.643 10.9899 116.431 12.1138 117.163L12.2502 116.953C12.8069 117.316 13.3736 117.664 13.9499 117.997L13.8246 118.213C14.9796 118.882 16.1726 119.491 17.3997 120.039L17.5016 119.81C18.1075 120.08 18.7219 120.335 19.344 120.574L19.2544 120.808C20.4973 121.285 21.7713 121.7 23.0726 122.048L23.1372 121.806C23.7774 121.977 24.4242 122.132 25.0772 122.27L25.0255 122.515C26.3245 122.79 27.6477 122.999 28.9915 123.138L29.0173 122.89Z" stroke="white" stroke-opacity="0.5" stroke-width="0.5" stroke-dasharray="4 2"/>
<path d="M33.0004 136.81C61.614 136.81 84.8099 113.614 84.8099 85C84.8099 56.3864 61.614 33.1905 33.0004 33.1905C4.38683 33.1905 -18.8091 56.3864 -18.8091 85C-18.8091 113.614 4.38683 136.81 33.0004 136.81Z" fill="white" fill-opacity="0.15"/>
<path d="M29.1247 136.667C29.7666 136.714 30.4118 136.75 31.06 136.774L31.0508 137.024C31.6977 137.047 32.3477 137.06 33.0004 137.06C33.6532 137.06 34.3031 137.047 34.9501 137.024L34.9409 136.774C35.5891 136.75 36.2342 136.714 36.8761 136.667L36.8946 136.916C38.1975 136.82 39.4871 136.675 40.7616 136.485L40.7247 136.238C41.366 136.142 42.0036 136.034 42.637 135.915L42.6832 136.161C43.9657 135.919 45.2317 135.631 46.4791 135.298L46.4146 135.056C47.0398 134.889 47.6604 134.71 48.2762 134.521L48.3498 134.76C49.5958 134.376 50.8219 133.946 52.0261 133.473L51.9347 133.241C52.5368 133.004 53.1334 132.757 53.7242 132.499L53.8243 132.728C55.0172 132.206 56.1868 131.642 57.331 131.036L57.214 130.815C57.7856 130.512 58.3507 130.199 58.9093 129.876L59.0345 130.092C60.16 129.441 61.2588 128.749 62.3289 128.018L62.1879 127.812C62.7217 127.447 63.2483 127.073 63.7674 126.689L63.916 126.89C64.9608 126.118 65.9757 125.307 66.9586 124.46L66.7955 124.271C67.285 123.849 67.7665 123.419 68.2399 122.979L68.4099 123.163C69.3614 122.279 70.2798 121.361 71.163 120.409L70.9798 120.239C71.4192 119.766 71.8498 119.285 72.2714 118.795L72.4609 118.958C73.3075 117.975 74.118 116.96 74.8904 115.916L74.6894 115.767C75.0731 115.248 75.4474 114.721 75.812 114.187L76.0185 114.328C76.7495 113.258 77.4416 112.16 78.0928 111.034L77.8764 110.909C78.1996 110.35 78.5126 109.785 78.8153 109.214L79.0362 109.331C79.6423 108.186 80.2069 107.017 80.7281 105.824L80.499 105.724C80.7571 105.133 81.0046 104.536 81.2411 103.934L81.4738 104.026C81.9468 102.821 82.3762 101.595 82.7601 100.349L82.5212 100.276C82.7109 99.66 82.8894 99.0394 83.0566 98.4141L83.2981 98.4787C83.6316 97.2312 83.9198 95.9653 84.1611 94.6828L83.9154 94.6366C84.0345 94.0031 84.1422 93.3656 84.238 92.7242L84.4853 92.7612C84.6758 91.4867 84.8201 90.197 84.9165 88.8941L84.6672 88.8757C84.7146 88.2338 84.7504 87.5886 84.7743 86.9405L85.0241 86.9496C85.0479 86.3027 85.0599 85.6527 85.0599 85C85.0599 84.3472 85.0479 83.6973 85.0241 83.0503L84.7743 83.0595C84.7504 82.4113 84.7146 81.7662 84.6672 81.1243L84.9165 81.1058C84.8201 79.8029 84.6758 78.5133 84.4853 77.2388L84.238 77.2757C84.1422 76.6344 84.0345 75.9969 83.9154 75.3634L84.1611 75.3172C83.9198 74.0347 83.6316 72.7687 83.2981 71.5213L83.0566 71.5858C82.8894 70.9606 82.7109 70.34 82.5212 69.7243L82.7601 69.6506C82.3762 68.4046 81.9468 67.1785 81.4738 65.9743L81.2411 66.0657C81.0046 65.4637 80.7571 64.8671 80.499 64.2762L80.7281 64.1761C80.2068 62.9832 79.6423 61.8136 79.0362 60.6694L78.8153 60.7864C78.5126 60.2149 78.1996 59.6497 77.8764 59.0911L78.0928 58.9659C77.4416 57.8404 76.7495 56.7416 76.0185 55.6715L75.812 55.8125C75.4474 55.2787 75.0731 54.7522 74.6894 54.233L74.8904 54.0844C74.118 53.0396 73.3075 52.0247 72.4609 51.0418L72.2714 51.2049C71.8498 50.7154 71.4192 50.2339 70.9798 49.7606L71.163 49.5905C70.2798 48.639 69.3614 47.7206 68.4099 46.8374L68.2399 47.0206C67.7665 46.5812 67.285 46.1506 66.7955 45.729L66.9586 45.5395C65.9757 44.6929 64.9608 43.8824 63.916 43.11L63.7674 43.3111C63.2483 42.9273 62.7217 42.553 62.1879 42.1884L62.3289 41.9819C61.2588 41.251 60.16 40.5588 59.0345 39.9077L58.9093 40.124C58.3507 39.8009 57.7856 39.4878 57.214 39.1851L57.331 38.9642C56.1868 38.3582 55.0172 37.7936 53.8243 37.2724L53.7242 37.5014C53.1333 37.2433 52.5368 36.9958 51.9347 36.7593L52.0261 36.5266C50.8219 36.0536 49.5958 35.6242 48.3498 35.2403L48.2762 35.4792C47.6605 35.2895 47.0399 35.111 46.4146 34.9438L46.4792 34.7023C45.2317 34.3689 43.9657 34.0806 42.6832 33.8393L42.637 34.085C42.0036 33.9659 41.3661 33.8582 40.7247 33.7624L40.7616 33.5151C39.4871 33.3246 38.1975 33.1803 36.8946 33.0839L36.8761 33.3332C36.2342 33.2858 35.5891 33.25 34.9409 33.2261L34.9501 32.9763C34.3031 32.9525 33.6532 32.9405 33.0004 32.9405C32.3477 32.9405 31.6977 32.9525 31.0508 32.9763L31.06 33.2261C30.4118 33.25 29.7666 33.2858 29.1247 33.3332L29.1063 33.0839C27.8034 33.1803 26.5138 33.3246 25.2392 33.5151L25.2762 33.7624C24.6348 33.8582 23.9973 33.9659 23.3639 34.085L23.3176 33.8393C22.0351 34.0806 20.7692 34.3689 19.5217 34.7023L19.5863 34.9438C18.961 35.111 18.3404 35.2895 17.7247 35.4792L17.6511 35.2403C16.4051 35.6242 15.179 36.0536 13.9748 36.5267L14.0662 36.7593C13.4641 36.9958 12.8675 37.2433 12.2767 37.5014L12.1766 37.2724C10.9837 37.7936 9.8141 38.3582 8.66983 38.9642L8.78683 39.1851C8.21531 39.4878 7.65013 39.8009 7.09154 40.124L6.96634 39.9077C5.84087 40.5588 4.74205 41.2509 3.67192 41.9819L3.81293 42.1884C3.27919 42.553 2.75261 42.9273 2.23346 43.3111L2.08485 43.11C1.04003 43.8824 0.0251408 44.6929 -0.957767 45.5395L-0.794611 45.729C-1.28413 46.1506 -1.76567 46.5812 -2.23899 47.0206L-2.40907 46.8374C-3.36054 47.7206 -4.27892 48.639 -5.16216 49.5905L-4.97893 49.7606C-5.41831 50.2339 -5.84894 50.7154 -6.27058 51.2049L-6.46 51.0418C-7.30662 52.0247 -8.11715 53.0396 -8.88952 54.0844L-8.68848 54.233C-9.07226 54.7522 -9.44658 55.2787 -9.81117 55.8125L-10.0176 55.6715C-10.7486 56.7416 -11.4407 57.8404 -12.0919 58.9659L-11.8755 59.0911C-12.1987 59.6497 -12.5118 60.2149 -12.8144 60.7864L-13.0354 60.6694C-13.6414 61.8137 -14.206 62.9832 -14.7272 64.1761L-14.4981 64.2762C-14.7563 64.8671 -15.0037 65.4637 -15.2402 66.0658L-15.4729 65.9743C-15.9459 67.1785 -16.3753 68.4046 -16.7592 69.6506L-16.5203 69.7243C-16.71 70.34 -16.8886 70.9606 -17.0557 71.5858L-17.2972 71.5213C-17.6307 72.7687 -17.919 74.0347 -18.1602 75.3172L-17.9145 75.3634C-18.0337 75.9968 -18.1413 76.6344 -18.2372 77.2757L-18.4844 77.2388C-18.675 78.5133 -18.8193 79.8029 -18.9156 81.1058L-18.6663 81.1243C-18.7138 81.7662 -18.7495 82.4113 -18.7734 83.0595L-19.0232 83.0503C-19.0471 83.6973 -19.0591 84.3472 -19.0591 85C-19.0591 85.6527 -19.0471 86.3027 -19.0232 86.9496L-18.7734 86.9404C-18.7495 87.5886 -18.7138 88.2338 -18.6663 88.8757L-18.9156 88.8941C-18.8193 90.197 -18.675 91.4867 -18.4844 92.7612L-18.2372 92.7242C-18.1413 93.3656 -18.0337 94.0031 -17.9145 94.6366L-18.1602 94.6828C-17.919 95.9653 -17.6307 97.2312 -17.2972 98.4787L-17.0557 98.4141C-16.8886 99.0394 -16.71 99.66 -16.5203 100.276L-16.7592 100.349C-16.3753 101.595 -15.9459 102.821 -15.4729 104.026L-15.2402 103.934C-15.0037 104.536 -14.7562 105.133 -14.4981 105.724L-14.7272 105.824C-14.206 107.017 -13.6414 108.186 -13.0354 109.331L-12.8144 109.214C-12.5118 109.785 -12.1987 110.35 -11.8755 110.909L-12.0919 111.034C-11.4407 112.16 -10.7486 113.258 -10.0176 114.328L-9.81117 114.187C-9.44658 114.721 -9.07226 115.248 -8.68849 115.767L-8.88952 115.916C-8.11715 116.96 -7.30662 117.975 -6.46001 118.958L-6.27058 118.795C-5.84895 119.285 -5.41831 119.766 -4.97894 120.239L-5.16216 120.409C-4.27893 121.361 -3.36055 122.279 -2.40908 123.163L-2.23899 122.979C-1.76567 123.419 -1.28413 123.849 -0.794615 124.271L-0.957771 124.46C0.0251369 125.307 1.04003 126.118 2.08484 126.89L2.23346 126.689C2.75261 127.073 3.27918 127.447 3.81293 127.812L3.67191 128.018C4.74205 128.749 5.84087 129.441 6.96633 130.092L7.09154 129.876C7.65013 130.199 8.21531 130.512 8.78684 130.815L8.66983 131.036C9.8141 131.642 10.9837 132.206 12.1766 132.728L12.2767 132.499C12.8675 132.757 13.4641 133.004 14.0662 133.241L13.9748 133.473C15.179 133.946 16.4051 134.376 17.6511 134.76L17.7247 134.521C18.3404 134.71 18.961 134.889 19.5863 135.056L19.5217 135.298C20.7692 135.631 22.0351 135.919 23.3176 136.161L23.3638 135.915C23.9973 136.034 24.6348 136.142 25.2762 136.238L25.2392 136.485C26.5138 136.675 27.8034 136.82 29.1063 136.916L29.1247 136.667Z" stroke="white" stroke-opacity="0.5" stroke-width="0.5" stroke-dasharray="4 2"/>
<path d="M33 149C68.3462 149 97 120.346 97 85C97 49.6538 68.3462 21 33 21C-2.34622 21 -31 49.6538 -31 85C-31 120.346 -2.34622 149 33 149Z" fill="white" fill-opacity="0.15"/>
<path d="M29.0568 148.881C29.7101 148.92 30.366 148.95 31.0244 148.97L31.0168 149.22C31.6754 149.24 32.3365 149.25 33 149.25C33.6634 149.25 34.3245 149.24 34.9832 149.22L34.9756 148.97C35.634 148.95 36.2899 148.92 36.9432 148.881L36.9583 149.13C38.2836 149.049 39.598 148.929 40.9004 148.769L40.87 148.521C41.5229 148.441 42.1729 148.351 42.8196 148.251L42.8576 148.498C44.1688 148.297 45.4669 148.055 46.7507 147.775L46.6974 147.531C47.3406 147.391 47.9801 147.241 48.6159 147.081L48.6767 147.324C49.9615 147.002 51.2309 146.641 52.4837 146.243L52.408 146.004C53.0355 145.805 53.6588 145.596 54.2778 145.378L54.3609 145.614C55.6087 145.174 56.8387 144.697 58.0498 144.184L57.9523 143.953C58.5585 143.696 59.1599 143.431 59.7564 143.156L59.861 143.383C61.0617 142.829 62.2423 142.24 63.4016 141.616L63.2832 141.396C63.8626 141.084 64.4366 140.764 65.0051 140.435L65.1303 140.651C66.2739 139.99 67.3952 139.294 68.4928 138.565L68.3545 138.357C68.9023 137.993 69.4442 137.621 69.98 137.241L70.1247 137.445C71.2018 136.681 72.2543 135.885 73.2809 135.058L73.1241 134.863C73.6359 134.451 74.1413 134.031 74.64 133.603L74.8028 133.793C75.8046 132.934 76.7797 132.044 77.7266 131.126L77.5525 130.946C78.0243 130.489 78.489 130.024 78.9464 129.553L79.1259 129.727C80.0443 128.78 80.9337 127.805 81.7928 126.803L81.6031 126.64C82.0307 126.141 82.4508 125.636 82.8632 125.124L83.0579 125.281C83.885 124.254 84.6812 123.202 85.4451 122.125L85.2411 121.98C85.6211 121.444 85.9931 120.902 86.3568 120.355L86.5651 120.493C87.2938 119.395 87.9897 118.274 88.6514 117.13L88.435 117.005C88.7639 116.437 89.0844 115.863 89.3961 115.283L89.6163 115.402C90.2401 114.242 90.8294 113.062 91.3827 111.861L91.1556 111.756C91.4305 111.16 91.6965 110.558 91.9534 109.952L92.1836 110.05C92.6968 108.839 93.1739 107.609 93.6137 106.361L93.3779 106.278C93.596 105.659 93.8049 105.036 94.0043 104.408L94.2426 104.484C94.6408 103.231 95.0016 101.962 95.3238 100.677L95.0813 100.616C95.2407 99.9801 95.3906 99.3406 95.5309 98.6974L95.7751 98.7507C96.055 97.4669 96.2966 96.1688 96.4985 94.8577L96.2514 94.8196C96.351 94.1729 96.4409 93.523 96.5209 92.87L96.7691 92.9004C96.9288 91.598 97.0495 90.2836 97.1301 88.9584L96.8805 88.9432C96.9202 88.2899 96.9501 87.634 96.9701 86.9756L97.22 86.9832C97.2399 86.3246 97.25 85.6635 97.25 85C97.25 84.3366 97.2399 83.6755 97.22 83.0168L96.9701 83.0244C96.9501 82.366 96.9202 81.7101 96.8805 81.0568L97.1301 81.0417C97.0495 79.7164 96.9288 78.402 96.7691 77.0996L96.5209 77.13C96.4409 76.4771 96.351 75.8271 96.2514 75.1804L96.4985 75.1424C96.2966 73.8312 96.055 72.5331 95.7751 71.2493L95.5309 71.3026C95.3906 70.6594 95.2407 70.0199 95.0813 69.3841L95.3238 69.3233C95.0016 68.0385 94.6408 66.7691 94.2426 65.5163L94.0043 65.592C93.8049 64.9645 93.596 64.3411 93.3779 63.7222L93.6137 63.6391C93.174 62.3914 92.6968 61.1613 92.1836 59.9502L91.9534 60.0477C91.6965 59.4415 91.4305 58.8401 91.1556 58.2436L91.3827 58.139C90.8294 56.9383 90.2401 55.7577 89.6163 54.5984L89.3961 54.7168C89.0844 54.1374 88.7639 53.5634 88.435 52.9949L88.6514 52.8697C87.9897 51.7261 87.2938 50.6048 86.5651 49.5072L86.3568 49.6455C85.9931 49.0977 85.6211 48.5558 85.2412 48.02L85.4451 47.8753C84.6812 46.7982 83.885 45.7457 83.0579 44.7191L82.8632 44.8759C82.4508 44.3641 82.0307 43.8587 81.6031 43.36L81.7928 43.1972C80.9337 42.1954 80.0443 41.2203 79.1259 40.2734L78.9464 40.4475C78.489 39.9757 78.0243 39.511 77.5526 39.0536L77.7266 38.8741C76.7797 37.9558 75.8046 37.0663 74.8028 36.2072L74.64 36.397C74.1413 35.9693 73.6359 35.5492 73.1241 35.1368L73.2809 34.9421C72.2544 34.115 71.2018 33.3188 70.1247 32.5549L69.9801 32.7588C69.4443 32.3789 68.9024 32.0069 68.3545 31.6432L68.4928 31.4349C67.3952 30.7062 66.2739 30.0103 65.1303 29.3486L65.0051 29.565C64.4366 29.2361 63.8626 28.9156 63.2832 28.6039L63.4016 28.3837C62.2423 27.7599 61.0617 27.1706 59.861 26.6173L59.7564 26.8444C59.1599 26.5695 58.5585 26.3035 57.9523 26.0466L58.0498 25.8164C56.8387 25.3032 55.6087 24.8261 54.3609 24.3863L54.2778 24.6221C53.6589 24.404 53.0355 24.1951 52.408 23.9957L52.4837 23.7574C51.2309 23.3592 49.9615 22.9984 48.6767 22.6762L48.6159 22.9187C47.9801 22.7593 47.3406 22.6094 46.6974 22.4691L46.7507 22.2249C45.4669 21.945 44.1688 21.7034 42.8577 21.5015L42.8196 21.7486C42.1729 21.649 41.523 21.5591 40.87 21.4791L40.9004 21.2309C39.598 21.0712 38.2836 20.9505 36.9584 20.87L36.9432 21.1195C36.2899 21.0798 35.634 21.0499 34.9756 21.0299L34.9832 20.78C34.3246 20.7601 33.6635 20.75 33 20.75C32.3366 20.75 31.6755 20.7601 31.0168 20.78L31.0244 21.0299C30.366 21.0499 29.7101 21.0798 29.0568 21.1195L29.0417 20.8699C27.7164 20.9505 26.402 21.0712 25.0996 21.2309L25.13 21.4791C24.4771 21.5591 23.8271 21.649 23.1804 21.7486L23.1424 21.5015C21.8312 21.7034 20.5331 21.945 19.2493 22.2249L19.3026 22.4691C18.6594 22.6094 18.0199 22.7593 17.3841 22.9187L17.3233 22.6762C16.0385 22.9983 14.7691 23.3592 13.5163 23.7574L13.592 23.9957C12.9645 24.1951 12.3411 24.404 11.7222 24.6221L11.6391 24.3863C10.3914 24.8261 9.16127 25.3032 7.9502 25.8164L8.04775 26.0466C7.44154 26.3035 6.8401 26.5695 6.24362 26.8444L6.13898 26.6173C4.93833 27.1706 3.75766 27.7599 2.59836 28.3837L2.71682 28.6039C2.13744 28.9156 1.5634 29.2361 0.994896 29.565L0.869694 29.3486C-0.273891 30.0103 -1.39519 30.7062 -2.49279 31.4349L-2.35451 31.6432C-2.90234 32.0069 -3.44424 32.3789 -3.98005 32.7588L-4.12466 32.5549C-5.20178 33.3188 -6.25434 34.115 -7.28093 34.9421L-7.12408 35.1368C-7.63593 35.5492 -8.14131 35.9693 -8.64002 36.3969L-8.80276 36.2072C-9.80461 37.0663 -10.7797 37.9557 -11.7266 38.8741L-11.5525 39.0535C-12.0243 39.511 -12.489 39.9757 -12.9464 40.4474L-13.1259 40.2734C-14.0442 41.2203 -14.9337 42.1954 -15.7928 43.1972L-15.603 43.36C-16.0307 43.8587 -16.4508 44.3641 -16.8632 44.8759L-17.0579 44.7191C-17.885 45.7456 -18.6812 46.7982 -19.4451 47.8753L-19.2412 48.0199C-19.6211 48.5557 -19.9931 49.0977 -20.3568 49.6455L-20.5651 49.5072C-21.2938 50.6048 -21.9897 51.7261 -22.6514 52.8697L-22.435 52.9949C-22.7639 53.5634 -23.0844 54.1374 -23.3961 54.7168L-23.6163 54.5984C-24.2401 55.7577 -24.8294 56.9383 -25.3827 58.139L-25.1556 58.2436C-25.4305 58.8401 -25.6965 59.4415 -25.9534 60.0477L-26.1836 59.9502C-26.6968 61.1613 -27.1739 62.3913 -27.6137 63.6391L-27.3779 63.7222C-27.596 64.3411 -27.8049 64.9645 -28.0043 65.592L-28.2426 65.5163C-28.6408 66.7691 -29.0016 68.0385 -29.3238 69.3233L-29.0813 69.3841C-29.2407 70.0199 -29.3906 70.6594 -29.5309 71.3026L-29.7751 71.2493C-30.055 72.5331 -30.2966 73.8312 -30.4985 75.1423L-30.2514 75.1804C-30.351 75.8271 -30.4409 76.477 -30.5209 77.13L-30.7691 77.0996C-30.9288 78.402 -31.0495 79.7164 -31.13 81.0416L-30.8805 81.0568C-30.9202 81.7101 -30.9501 82.366 -30.9701 83.0244L-31.22 83.0168C-31.2399 83.6754 -31.25 84.3365 -31.25 85C-31.25 85.6634 -31.2399 86.3245 -31.22 86.9832L-30.9701 86.9756C-30.9501 87.634 -30.9202 88.2899 -30.8805 88.9432L-31.1301 88.9583C-31.0495 90.2836 -30.9288 91.598 -30.7691 92.9004L-30.5209 92.87C-30.4409 93.5229 -30.351 94.1729 -30.2514 94.8196L-30.4985 94.8576C-30.2966 96.1688 -30.055 97.4669 -29.7751 98.7507L-29.5309 98.6974C-29.3906 99.3406 -29.2407 99.9801 -29.0813 100.616L-29.3238 100.677C-29.0017 101.961 -28.6408 103.231 -28.2426 104.484L-28.0043 104.408C-27.8049 105.036 -27.596 105.659 -27.3779 106.278L-27.6137 106.361C-27.1739 107.609 -26.6968 108.839 -26.1836 110.05L-25.9534 109.952C-25.6965 110.558 -25.4305 111.16 -25.1556 111.756L-25.3827 111.861C-24.8294 113.062 -24.2401 114.242 -23.6163 115.402L-23.3961 115.283C-23.0844 115.863 -22.7639 116.437 -22.435 117.005L-22.6514 117.13C-21.9897 118.274 -21.2938 119.395 -20.5651 120.493L-20.3568 120.355C-19.9931 120.902 -19.6211 121.444 -19.2412 121.98L-19.4451 122.125C-18.6812 123.202 -17.885 124.254 -17.0579 125.281L-16.8632 125.124C-16.4508 125.636 -16.0307 126.141 -15.6031 126.64L-15.7928 126.803C-14.9337 127.805 -14.0443 128.78 -13.1259 129.727L-12.9465 129.553C-12.489 130.024 -12.0243 130.489 -11.5526 130.946L-11.7266 131.126C-10.7797 132.044 -9.80463 132.934 -8.80277 133.793L-8.64003 133.603C-8.14132 134.031 -7.63595 134.451 -7.12409 134.863L-7.28094 135.058C-6.25436 135.885 -5.2018 136.681 -4.12468 137.445L-3.98006 137.241C-3.44426 137.621 -2.90235 137.993 -2.35452 138.357L-2.4928 138.565C-1.3952 139.294 -0.273903 139.99 0.869686 140.651L0.994886 140.435C1.56339 140.764 2.13743 141.084 2.71682 141.396L2.59835 141.616C3.75765 142.24 4.93832 142.829 6.13897 143.383L6.24361 143.156C6.84009 143.431 7.44152 143.696 8.04773 143.953L7.95019 144.184C9.16126 144.697 10.3913 145.174 11.6391 145.614L11.7222 145.378C12.3411 145.596 12.9645 145.805 13.592 146.004L13.5163 146.243C14.7691 146.641 16.0385 147.002 17.3233 147.324L17.3841 147.081C18.0199 147.241 18.6594 147.391 19.3026 147.531L19.2493 147.775C20.5331 148.055 21.8312 148.297 23.1423 148.498L23.1804 148.251C23.8271 148.351 24.477 148.441 25.13 148.521L25.0996 148.769C26.402 148.929 27.7164 149.049 29.0416 149.13L29.0568 148.881Z" stroke="white" stroke-opacity="0.5" stroke-width="0.5" stroke-dasharray="4 2"/>
<path d="M132.19 70V63.084H130.566V61.012H132.19V58.996H130.566V56.924H132.19V50.008H136.586L138.77 56.924H141.318V50.008H144.426V56.924H146.022V58.996H144.426V61.012H146.022V63.084H144.426V70H140.002L137.762 63.084H135.298V70H132.19ZM135.186 56.924H135.97L135.158 54.236H135.046L135.186 56.924ZM135.298 61.012H137.146L136.53 58.996H135.242L135.298 61.012ZM140.086 61.012H141.374L141.318 58.996H139.442L140.086 61.012ZM141.402 65.632H141.542L141.43 63.084H140.674L141.402 65.632ZM154.57 57.792H152.106L152.442 53.424H160.394V50.4H149.474L148.718 60.928H154.43C156.558 60.928 158.014 62.104 158.014 64.064C158.014 66.024 156.558 67.228 154.374 67.228C152.33 67.228 150.986 66.304 150.482 64.568L147.71 66.164C148.746 68.992 151.406 70.364 154.374 70.364C157.986 70.364 161.234 68.18 161.234 64.064C161.234 59.976 158.126 57.792 154.57 57.792ZM176.4 56.728C176.4 52.78 173.544 50.036 169.484 50.036C165.424 50.036 162.54 52.78 162.54 56.728C162.54 60.676 165.424 63.42 169.484 63.42H169.82L165.34 70H169.036L175.224 60.676C175.98 59.584 176.4 58.24 176.4 56.728ZM165.76 56.728C165.76 54.488 167.356 53.088 169.484 53.088C171.612 53.088 173.18 54.488 173.18 56.728C173.18 58.968 171.612 60.368 169.484 60.368C167.356 60.368 165.76 58.94 165.76 56.728ZM186.162 58.408L190.138 53.144V50.4H178.098V53.424H186.302L182.074 58.996L183.362 60.928H184.09C186.302 60.928 187.73 62.104 187.73 64.064C187.73 66.024 186.302 67.228 184.09 67.228C182.13 67.228 180.814 66.36 180.254 64.708L177.51 66.304C178.602 69.048 181.206 70.364 184.09 70.364C187.702 70.364 190.95 68.18 190.95 64.064C190.95 61.012 188.85 59.052 186.162 58.408ZM197.908 66.64H194.548L193.428 73.92H195.948L197.908 66.64ZM209.266 58.408L213.242 53.144V50.4H201.202V53.424H209.406L205.178 58.996L206.466 60.928H207.194C209.406 60.928 210.834 62.104 210.834 64.064C210.834 66.024 209.406 67.228 207.194 67.228C205.234 67.228 203.918 66.36 203.358 64.708L200.614 66.304C201.706 69.048 204.31 70.364 207.194 70.364C210.806 70.364 214.054 68.18 214.054 64.064C214.054 61.012 211.954 59.052 209.266 58.408ZM229.745 56.728C229.745 52.78 226.889 50.036 222.829 50.036C218.769 50.036 215.885 52.78 215.885 56.728C215.885 60.676 218.769 63.42 222.829 63.42H223.165L218.685 70H222.381L228.569 60.676C229.325 59.584 229.745 58.24 229.745 56.728ZM219.105 56.728C219.105 54.488 220.701 53.088 222.829 53.088C224.957 53.088 226.525 54.488 226.525 56.728C226.525 58.968 224.957 60.368 222.829 60.368C220.701 60.368 219.105 58.94 219.105 56.728ZM238.156 57.792H235.692L236.028 53.424H243.98V50.4H233.06L232.304 60.928H238.016C240.144 60.928 241.6 62.104 241.6 64.064C241.6 66.024 240.144 67.228 237.96 67.228C235.916 67.228 234.572 66.304 234.068 64.568L231.296 66.164C232.332 68.992 234.992 70.364 237.96 70.364C241.572 70.364 244.82 68.18 244.82 64.064C244.82 59.976 241.712 57.792 238.156 57.792Z" fill="white"/>
<path d="M159.73 27.2H152.66V28.432H155.544V37H156.832V28.432H159.73V27.2ZM163.191 37.182C165.235 37.182 166.887 35.572 166.887 33.5C166.887 31.428 165.235 29.818 163.191 29.818C161.147 29.818 159.509 31.428 159.509 33.5C159.509 35.572 161.147 37.182 163.191 37.182ZM163.191 35.992C161.805 35.992 160.727 34.914 160.727 33.5C160.727 32.086 161.805 31.008 163.191 31.008C164.591 31.008 165.669 32.086 165.669 33.5C165.669 34.914 164.591 35.992 163.191 35.992ZM172.26 31.176V30H170.398V28.04L169.18 28.404V30H167.794V31.176H169.18V34.97C169.18 36.72 170.16 37.28 172.26 37V35.908C171.014 35.964 170.398 36.034 170.398 34.97V31.176H172.26ZM179.423 30V31.204C178.863 30.35 177.967 29.818 176.777 29.818C174.831 29.818 173.235 31.428 173.235 33.5C173.235 35.572 174.831 37.182 176.777 37.182C177.967 37.182 178.863 36.65 179.423 35.796V37H180.641V30H179.423ZM176.931 36.006C175.531 36.006 174.453 34.928 174.453 33.5C174.453 32.072 175.531 30.994 176.931 30.994C178.345 30.994 179.423 32.072 179.423 33.5C179.423 34.928 178.345 36.006 176.931 36.006ZM182.766 37H183.984V26.78H182.766V37ZM193.192 37.182C195.194 37.182 196.58 36.09 196.58 34.368C196.58 32.478 194.97 31.974 193.262 31.414C191.89 30.98 191.204 30.644 191.204 29.734C191.204 28.838 191.932 28.278 192.982 28.278C194.172 28.278 194.858 28.95 195.208 29.79L196.3 29.16C195.754 27.928 194.592 27.018 192.982 27.018C191.344 27.018 189.902 28.026 189.902 29.79C189.902 31.61 191.414 32.1 192.982 32.604C194.424 33.052 195.292 33.388 195.292 34.396C195.292 35.278 194.606 35.908 193.22 35.908C191.792 35.908 190.952 35.208 190.602 34.13L189.482 34.774C190 36.244 191.33 37.182 193.192 37.182ZM204.236 30V31.204C203.676 30.35 202.78 29.818 201.59 29.818C199.644 29.818 198.048 31.428 198.048 33.5C198.048 35.572 199.644 37.182 201.59 37.182C202.78 37.182 203.676 36.65 204.236 35.796V37H205.454V30H204.236ZM201.744 36.006C200.344 36.006 199.266 34.928 199.266 33.5C199.266 32.072 200.344 30.994 201.744 30.994C203.158 30.994 204.236 32.072 204.236 33.5C204.236 34.928 203.158 36.006 201.744 36.006ZM207.579 37H208.797V26.78H207.579V37ZM211.79 34.06H217.656C217.684 33.878 217.698 33.696 217.698 33.514C217.698 31.554 216.326 29.818 214.212 29.818C212.028 29.818 210.544 31.428 210.544 33.5C210.544 35.6 212.042 37.182 214.296 37.182C215.696 37.182 216.76 36.552 217.376 35.6L216.34 35.012C215.99 35.586 215.29 36.034 214.324 36.034C213.022 36.034 212.028 35.32 211.79 34.06ZM214.212 30.966C215.262 30.966 216.256 31.61 216.466 32.996H211.79C211.986 31.778 212.896 30.966 214.212 30.966ZM220.154 31.89C220.154 31.26 220.77 30.952 221.4 30.952C222.016 30.952 222.632 31.218 222.898 31.848L223.92 31.274C223.472 30.364 222.548 29.818 221.4 29.818C219.986 29.818 218.922 30.672 218.922 31.904C218.922 34.438 222.842 33.584 222.842 35.082C222.842 35.768 222.198 36.034 221.456 36.034C220.588 36.034 219.944 35.614 219.72 34.942L218.67 35.544C219.076 36.51 220.056 37.182 221.456 37.182C222.954 37.182 224.074 36.384 224.074 35.082C224.074 32.506 220.154 33.388 220.154 31.89Z" fill="white"/>
</g>
</g>
<defs>
<filter id="filter0_d" x="0" y="0" width="376" height="148" filterUnits="userSpaceOnUse" color-interpolation-filters="sRGB">
<feFlood flood-opacity="0" result="BackgroundImageFix"/>
<feColorMatrix in="SourceAlpha" type="matrix" values="0 0 0 0 0 0 0 0 0 0 0 0 0 0 0 0 0 0 127 0" result="hardAlpha"/>
<feMorphology radius="16" operator="erode" in="SourceAlpha" result="effect1_dropShadow"/>
<feOffset dy="24"/>
<feGaussianBlur stdDeviation="20"/>
<feColorMatrix type="matrix" values="0 0 0 0 0.313726 0 0 0 0 0.321569 0 0 0 0 0.356863 0 0 0 0.45 0"/>
<feBlend mode="normal" in2="BackgroundImageFix" result="effect1_dropShadow"/>
<feBlend mode="normal" in="SourceGraphic" in2="effect1_dropShadow" result="shape"/>
</filter>
<linearGradient id="paint0_linear" x1="24" y1="0" x2="447.573" y2="169.404" gradientUnits="userSpaceOnUse">
<stop offset="0.0104167" stop-color="#CD2F34"/>
<stop offset="0.0363583" stop-color="#CD2F34"/>
<stop offset="0.0364583" stop-color="#CD2F34"/>
<stop offset="0.215456" stop-color="#CD2F34"/>
<stop offset="0.46875" stop-color="#D3373C"/>
<stop offset="0.510417" stop-color="#D3393E"/>
<stop offset="0.552083" stop-color="#D43A3F"/>
<stop offset="0.630208" stop-color="#D63D42"/>
<stop offset="0.744792" stop-color="#DE494E"/>
<stop offset="0.765625" stop-color="#DE494E"/>
<stop offset="0.822917" stop-color="#DE494E"/>
<stop offset="0.869792" stop-color="#DE494E"/>
<stop offset="0.90625" stop-color="#DE494E"/>
<stop offset="0.973958" stop-color="#DE494E"/>
<stop offset="0.974058" stop-color="#DE494E"/>
</linearGradient>
<clipPath id="clip0">
<path d="M24 8C24 3.58172 27.5817 0 32 0H344C348.418 0 352 3.58172 352 8V92C352 96.4183 348.418 100 344 100H32C27.5817 100 24 96.4183 24 92V8Z" fill="white"/>
</clipPath>
</defs>
</svg>
