<svg width="25" height="24" viewBox="0 0 25 24" fill="none" xmlns="http://www.w3.org/2000/svg">
<path d="M12.4421 14.9768C16.3412 14.9768 19.6704 15.595 19.6704 18.0686C19.6704 20.5412 16.3625 21.1818 12.4421 21.1818C8.54301 21.1818 5.21374 20.5637 5.21374 18.0911C5.21374 15.6175 8.52164 14.9768 12.4421 14.9768ZM18.6762 13.4874C20.1669 13.4597 21.7694 13.6644 22.3616 13.8097C23.6162 14.0564 24.4414 14.5599 24.7833 15.2916C25.0722 15.8924 25.0722 16.5893 24.7833 17.1891C24.2603 18.324 22.5743 18.6884 21.919 18.7825C21.7837 18.803 21.6748 18.6853 21.689 18.5492C22.0238 15.4042 19.361 13.9131 18.6721 13.5703C18.6426 13.5549 18.6365 13.5314 18.6396 13.517C18.6416 13.5068 18.6538 13.4904 18.6762 13.4874ZM6.04384 13.4852L6.32454 13.4878C6.34693 13.4908 6.35812 13.5072 6.36016 13.5164C6.36321 13.5318 6.3571 13.5543 6.32861 13.5707C5.63875 13.9135 2.97594 15.4046 3.3107 18.5486C3.32495 18.6857 3.21709 18.8024 3.08176 18.7829C2.42649 18.6888 0.740488 18.3244 0.217491 17.1895C-0.0724971 16.5887 -0.0724971 15.8928 0.217491 15.2921C0.559372 14.5603 1.38355 14.0568 2.63813 13.8091C3.23134 13.6648 4.83289 13.4601 6.32454 13.4878L6.04384 13.4852ZM12.4421 3C15.0967 3 17.2254 5.13894 17.2254 7.81006C17.2254 10.4802 15.0967 12.6211 12.4421 12.6211C9.78741 12.6211 7.6588 10.4802 7.6588 7.81006C7.6588 5.13894 9.78741 3 12.4421 3ZM18.9357 3.80215C21.4998 3.80215 23.5134 6.22867 22.8276 8.93152C22.3647 10.7512 20.6888 11.9598 18.8217 11.9107C18.6345 11.9056 18.4503 11.8882 18.2723 11.8575C18.143 11.835 18.0779 11.6886 18.1512 11.5801C18.8634 10.526 19.2694 9.25799 19.2694 7.89684C19.2694 6.47634 18.8258 5.15204 18.0555 4.0662C18.0311 4.03242 18.0128 3.98023 18.0372 3.94134C18.0576 3.90961 18.0952 3.89324 18.1308 3.88505C18.3903 3.83183 18.6569 3.80215 18.9357 3.80215ZM6.06355 3.80205C6.34235 3.80205 6.60894 3.83173 6.86942 3.88495C6.90401 3.89314 6.94268 3.91053 6.96303 3.94124C6.98643 3.98013 6.96913 4.03232 6.94471 4.06609C6.17446 5.15194 5.73083 6.47624 5.73083 7.89674C5.73083 9.25789 6.13682 10.5259 6.84907 11.58C6.92233 11.6885 6.85721 11.8349 6.72798 11.8574C6.5489 11.8891 6.36575 11.9055 6.17853 11.9106C4.31141 11.9597 2.63559 10.7511 2.17262 8.93142C1.48581 6.22857 3.49945 3.80205 6.06355 3.80205Z" fill="#9799A0"/>
</svg>
