<svg width="24" height="24" viewBox="0 0 24 24" fill="none" xmlns="http://www.w3.org/2000/svg">
<path d="M11.0833 13.6042C11.0833 13.2256 10.7735 12.9167 10.3958 12.9167H6.95834V15.6667C6.95834 16.1727 6.54767 16.5834 6.04167 16.5834C5.53567 16.5834 5.125 16.1727 5.125 15.6667V12.9167H1.6875C1.30892 12.9167 1 13.2256 1 13.6042V22.3125C1 22.6911 1.30892 23 1.6875 23H10.3958C10.7735 23 11.0833 22.6911 11.0833 22.3125V13.6042Z" fill="#9799A0"/>
<path d="M22.9998 13.6042C22.9998 13.2256 22.69 12.9167 22.3123 12.9167H18.8748V15.6667C18.8748 16.1727 18.4642 16.5834 17.9582 16.5834C17.4522 16.5834 17.0415 16.1727 17.0415 15.6667V12.9167H13.604C13.2254 12.9167 12.9165 13.2256 12.9165 13.6042V22.3125C12.9165 22.6911 13.2254 23 13.604 23H22.3123C22.69 23 22.9998 22.6911 22.9998 22.3125V13.6042Z" fill="#9799A0"/>
<path d="M17.0418 1.6875C17.0418 1.30983 16.732 1 16.3543 1H12.9168V3.75C12.9168 4.256 12.5062 4.66667 12.0002 4.66667C11.4942 4.66667 11.0835 4.256 11.0835 3.75V1H7.646C7.26741 1 6.9585 1.30983 6.9585 1.6875V10.3958C6.9585 10.7744 7.26741 11.0833 7.646 11.0833H16.3543C16.732 11.0833 17.0418 10.7744 17.0418 10.3958V1.6875Z" fill="#9799A0"/>
</svg>
